<svg xmlns="http://www.w3.org/2000/svg" xmlns:xlink="http://www.w3.org/1999/xlink" width="299.33" height="372.275" viewBox="0 0 299.33 372.275">
  <defs>
    <clipPath id="clip-path">
      <rect width="299.33" height="372.275" fill="none"/>
    </clipPath>
  </defs>
  <g id="Repeat_Grid_28" data-name="Repeat Grid 28" clip-path="url(#clip-path)">
    <g transform="translate(5616.062 -3406.225)">
      <g id="Group_510" data-name="Group 510" transform="translate(-5316.732 3406.225) rotate(90)">
        <g id="Group_13" data-name="Group 13" transform="translate(14.244 14.242)">
          <path id="Path_10" data-name="Path 10" d="M.316,144.6A135.414,135.414,0,1,1,144.59,270.528,135.42,135.42,0,0,1,.316,144.6Z" transform="translate(0 0)" fill="#ebebeb"/>
        </g>
        <g id="Group_14" data-name="Group 14" transform="translate(0 0)">
          <ellipse id="Ellipse_1" data-name="Ellipse 1" cx="113.312" cy="113.312" rx="113.312" ry="113.312" transform="matrix(0.913, -0.408, 0.408, 0.913, 0, 92.396)" fill="#fff"/>
          <g id="Group_400" data-name="Group 400" transform="translate(-81.009 542.879) rotate(-90)">
            <path id="Path_2084" data-name="Path 2084" d="M419.41,426.6a26.651,26.651,0,0,0-11.521-21.949,34.808,34.808,0,0,1,11.069-60.788,111.117,111.117,0,1,0-52.518-.015,34.835,34.835,0,0,1,11.121,60.8A26.681,26.681,0,1,0,419.41,426.6Z" transform="translate(0 0)" fill="#fff"/>
          </g>
        </g>
        <g id="Group_15" data-name="Group 15" transform="translate(56.097 56.096)">
          <path id="Path_11" data-name="Path 11" d="M.219,99.909A93.565,93.565,0,1,1,99.9,186.918,93.564,93.564,0,0,1,.219,99.909Z" transform="translate(0 0)" fill="#201e67"/>
        </g>
      </g>
      <g id="brain" transform="translate(-5495 3524)">
        <path id="Path_2334" data-name="Path 2334" d="M59.89,23.482a9.677,9.677,0,1,0,9.677,9.677A9.688,9.688,0,0,0,59.89,23.482ZM57.955,39.766l-5.24-5.238,2.737-2.738,2.5,2.5,6.372-6.374,2.737,2.738Zm-.009-20.014V1.258A8.8,8.8,0,0,0,53.425,0a9.418,9.418,0,0,0-7.61,4.355h-.124c-6.124,0-11.116,5.884-10.528,12.942-5.02,3.924-5.827,11.872-1.741,16.954-3.9,8.571.672,19.044,9.168,20.732,1.253,6.414,6.317,11.078,12.3,11.078a10.664,10.664,0,0,0,3.054-.448V52.91c-3.014,1.127-5.236,3.751-5.8,4.269l-2.73-2.734c1.118-1.1,4.179-4.574,8.532-5.574V46.566a13.547,13.547,0,0,1,0-26.814ZM44.4,46.707H40.528V38.965H44.4Zm-.474-20.512-3.546-1.553a21.418,21.418,0,0,1,6.749-8.512l2.324,3.094A17.552,17.552,0,0,0,43.925,26.194ZM50.2,8h3.871V11.87H50.2Zm34.363,9.3c.6-6.859-4.251-12.942-10.528-12.942h-.123A9.422,9.422,0,0,0,66.305,0a8.827,8.827,0,0,0-4.489,1.235V13.416c3.021-1.124,5.254-3.759,5.82-4.277l2.729,2.734c-1.119,1.1-4.2,4.587-8.549,5.578v2.3a13.547,13.547,0,0,1,0,26.819V65.624a10.7,10.7,0,0,0,3.022.436c5.985,0,11.05-4.664,12.3-11.078,8.519-1.692,13.057-12.191,9.168-20.732,4.1-5.1,3.266-13.041-1.741-16.954ZM73.429,23.482V15.741H77.3v7.741ZM69.558,54.448H65.687V50.577h3.871Zm3.107-4.269-2.326-3.093a17.546,17.546,0,0,0,5.516-6.962L79.4,41.677a21.433,21.433,0,0,1-6.735,8.5ZM81.17,31.224H77.3V27.353H81.17Z" transform="translate(-30.811 0)" fill="#fff"/>
      </g>
    </g>
  </g>
</svg>