<svg xmlns="http://www.w3.org/2000/svg" xmlns:xlink="http://www.w3.org/1999/xlink" width="284.878" height="352.198" viewBox="0 0 284.878 352.198">
  <defs>
    <clipPath id="clip-path">
      <rect width="284.878" height="352.198" fill="none"/>
    </clipPath>
  </defs>
  <g id="Repeat_Grid_6" data-name="Repeat Grid 6" clip-path="url(#clip-path)">
    <g transform="translate(-10153 -654.484)">
      <g id="stethoscope" transform="translate(10153 654.484)">
        <path id="Path_2118" data-name="Path 2118" d="M372.874,272.118a41.032,41.032,0,0,0-43.408,41.3A41.033,41.033,0,0,0,286.057,272.1a42.4,42.4,0,0,0-38.031,45.034,86.344,86.344,0,0,0,2.47,16.478,34.874,34.874,0,0,1,43.917,11.982c9.654,14.315,3.128,29.238-9.6,40.9,11.78,9.833,29.822,21.278,44.651,25.229,25.476-5.175,78.947-39.58,81.44-94.57A42.4,42.4,0,0,0,372.874,272.118Zm0,0" transform="translate(-126.125 -59.524)" fill="#79e0d2"/>
        <path id="Path_2119" data-name="Path 2119" d="M422.022,311.665c-6.818-6.818-15.111-9.583-18.518-6.173s-.648,11.7,6.173,18.518,15.111,9.583,18.521,6.176S428.843,318.483,422.022,311.665Zm0,0" transform="translate(-168.114 -68.244)" fill="#4dd8c7"/>
        <path id="Path_2120" data-name="Path 2120" d="M288.723,292.417a84.969,84.969,0,0,1,2.521-20.261,40.5,40.5,0,0,0-5.187,0,42.4,42.4,0,0,0-38.031,45.031c.29,5.559,1.691,17.728,4.937,25.284a126.275,126.275,0,0,0,26.365,39.911,114.822,114.822,0,0,0,50.138,29.352,112.8,112.8,0,0,0,50.056-29.352C328.937,379.814,288.723,340.58,288.723,292.417Zm0,0" transform="translate(-126.125 -59.537)" fill="#4dd8c7"/>
        <g id="Group_39" data-name="Group 39" transform="translate(0 11.641)">
          <path id="Path_158" data-name="Path 158" d="M162.971,368.059h-29.1a29.134,29.134,0,0,0-29.1,29.1,17.462,17.462,0,0,1-17.461,17.461H29.1a17.462,17.462,0,0,1-17.461-17.461V362.239A17.46,17.46,0,0,1,29.1,344.778h58.2a29.138,29.138,0,0,0,29.1-29.1v-5.82a5.82,5.82,0,1,0-11.641,0v5.82a17.462,17.462,0,0,1-17.461,17.461H29.1A29.134,29.134,0,0,0,0,362.239v34.922a29.138,29.138,0,0,0,29.1,29.1h58.2a29.138,29.138,0,0,0,29.1-29.1A17.46,17.46,0,0,1,133.869,379.7h29.1a5.82,5.82,0,0,0,0-11.641Zm0,0" transform="translate(0 -94.502)" fill="#201e67"/>
          <path id="Path_159" data-name="Path 159" d="M21.82,109.161a5.821,5.821,0,0,1-5.82-5.82v-58.2a29.134,29.134,0,0,1,29.1-29.1H56.743a5.82,5.82,0,1,1,0,11.641H45.1A17.46,17.46,0,0,0,27.641,45.137v58.2A5.821,5.821,0,0,1,21.82,109.161Zm0,0" transform="translate(-4.359 -16.035)" fill="#201e67"/>
          <path id="Path_160" data-name="Path 160" d="M264.743,109.161a5.821,5.821,0,0,1-5.82-5.82v-58.2a17.46,17.46,0,0,0-17.461-17.461H229.82a5.82,5.82,0,0,1,0-11.641h11.641a29.134,29.134,0,0,1,29.1,29.1v58.2A5.821,5.821,0,0,1,264.743,109.161Zm0,0" transform="translate(-61.029 -16.035)" fill="#201e67"/>
        </g>
        <path id="Path_161" data-name="Path 161" d="M89.452.035a17.46,17.46,0,0,0-17.461,18.4,18.126,18.126,0,0,0,18.45,16.526h10.652a5.821,5.821,0,0,0,5.82-5.82V5.856a5.821,5.821,0,0,0-5.82-5.82Zm0,0" transform="translate(-19.607 -0.035)" fill="#201e67"/>
        <path id="Path_162" data-name="Path 162" d="M201.461.035a17.46,17.46,0,0,1,17.461,18.4,18.126,18.126,0,0,1-18.45,16.526H189.82a5.821,5.821,0,0,1-5.82-5.82V5.856a5.821,5.821,0,0,1,5.82-5.82Zm0,0" transform="translate(-50.131 -0.035)" fill="#201e67"/>
        <path id="Path_163" data-name="Path 163" d="M293.845,386.957a34.922,34.922,0,1,1-34.922-34.922A34.924,34.924,0,0,1,293.845,386.957Zm0,0" transform="translate(-61.029 -95.939)" fill="#dcf8f7"/>
        <path id="Path_164" data-name="Path 164" d="M276.366,410.764a34.922,34.922,0,0,1-27.2-56.8,34.922,34.922,0,1,0,36.934,55.4A34.845,34.845,0,0,1,276.366,410.764Zm0,0" transform="translate(-61.012 -96.463)" fill="#fff"/>
        <path id="Path_169" data-name="Path 169" d="M205.429,136.035a11.762,11.762,0,0,0-11.567,10.476,81.484,81.484,0,0,1-161.629,0,11.645,11.645,0,0,0-23.114,2.853A104.766,104.766,0,0,0,101.407,240.1v12.346a11.641,11.641,0,0,0,23.282,0V240.1a104.766,104.766,0,0,0,92.288-90.739,11.725,11.725,0,0,0-11.547-13.323Zm0,0" transform="translate(-2.46 -37.089)" fill="#e2f7f6"/>
        <path id="Path_170" data-name="Path 170" d="M90.587,214.479a81.557,81.557,0,0,1-58.354-67.872A11.645,11.645,0,0,0,9.119,149.46a104.766,104.766,0,0,0,92.288,90.733v12.346a11.612,11.612,0,0,0,22.759,3.277A113.61,113.61,0,0,1,90.587,214.479Zm0,0" transform="translate(-2.46 -37.185)" fill="#f0f0f0"/>
      </g>
      <path id="Path_2129" data-name="Path 2129" d="M279.281,395.676a11.641,11.641,0,1,1-11.641-11.641A11.641,11.641,0,0,1,279.281,395.676Zm0,0" transform="translate(10084.783 550.295)" fill="#4dd8c7"/>
    </g>
  </g>
</svg>