<svg xmlns="http://www.w3.org/2000/svg" xmlns:xlink="http://www.w3.org/1999/xlink" width="299.33" height="372.586" viewBox="0 0 299.33 372.586">
  <defs>
    <clipPath id="clip-path">
      <rect width="299.33" height="372.586" fill="none"/>
    </clipPath>
  </defs>
  <g id="Repeat_Grid_29" data-name="Repeat Grid 29" clip-path="url(#clip-path)">
    <g transform="translate(5264.525 -3406.914)">
      <g id="Group_508" data-name="Group 508" transform="translate(-4965.195 3406.914) rotate(90)">
        <g id="Group_13" data-name="Group 13" transform="translate(14.244 14.242)">
          <path id="Path_10" data-name="Path 10" d="M.316,144.6A135.414,135.414,0,1,1,144.59,270.528,135.42,135.42,0,0,1,.316,144.6Z" transform="translate(0 0)" fill="#ebebeb"/>
        </g>
        <g id="Group_14" data-name="Group 14" transform="translate(0 0)">
          <ellipse id="Ellipse_1" data-name="Ellipse 1" cx="113.312" cy="113.312" rx="113.312" ry="113.312" transform="matrix(0.913, -0.408, 0.408, 0.913, 0, 92.396)" fill="#fff"/>
          <g id="Group_399" data-name="Group 399" transform="translate(-80.698 542.417) rotate(-90)">
            <path id="Path_2084" data-name="Path 2084" d="M419.41,426.6a26.651,26.651,0,0,0-11.521-21.949,34.808,34.808,0,0,1,11.069-60.788,111.117,111.117,0,1,0-52.518-.015,34.835,34.835,0,0,1,11.121,60.8A26.681,26.681,0,1,0,419.41,426.6Z" transform="translate(0 0)" fill="#fff"/>
          </g>
        </g>
        <g id="Group_15" data-name="Group 15" transform="translate(56.097 56.096)">
          <path id="Path_11" data-name="Path 11" d="M.219,99.909A93.565,93.565,0,1,1,99.9,186.918,93.564,93.564,0,0,1,.219,99.909Z" transform="translate(0 0)" fill="#201e67"/>
        </g>
      </g>
      <g id="lungs" transform="translate(-5147.179 3527.426)">
        <path id="Path_2338" data-name="Path 2338" d="M217.961,43.063h-.009V30.93h-3.8V43.063l-3.888,1.932c.038,1.477.105,2.856.2,4.147l5.6-2.778,5.6,2.778c.093-1.291.16-2.67.2-4.147Z" transform="translate(-183.603 -30.93)" fill="#fff"/>
        <path id="Path_2339" data-name="Path 2339" d="M283.41,60.93a7.615,7.615,0,0,0-7.607,7.607q0,1.379-.033,2.655l9.986,4.952h5.26v3.8h-3.27L290.96,92.8l-3.691.923-3.59-14.362-8.106-4.02C274.749,86.878,272,91.272,272,95.16c0,8.719,15.825,19.035,24.248,19.035,3.988,0,6.179-2.3,6.179-5.723V85.652c0-11.3-7.654-24.722-19.017-24.722Z" transform="translate(-237.516 -57.127)" fill="#fff"/>
        <path id="Path_2340" data-name="Path 2340" d="M15.156,93.72,11.466,92.8l3.213-12.85H11.41v-3.8h5.259l9.988-4.952q-.032-1.278-.033-2.655a7.616,7.616,0,0,0-7.607-7.607c-7.745,0-13.451,6.083-16.6,13.212A28.312,28.312,0,0,0,0,85.652v22.82c0,3.428,2.193,5.723,6.178,5.723,8.435,0,24.249-10.327,24.249-19.035,0-3.887-2.749-8.282-3.573-19.822l-8.108,4.02Z" transform="translate(0 -57.127)" fill="#fff"/>
      </g>
    </g>
  </g>
</svg>